<mxfile host="app.diagrams.net" agent="Mozilla/5.0 (Windows NT 10.0; Win64; x64) AppleWebKit/537.36 (KHTML, like Gecko) Chrome/140.0.0.0 Safari/537.36" version="28.2.1">
  <diagram name="Page-1" id="txSvDVYumE7NUMxKTKsU">
    <mxGraphModel dx="-2322" dy="1012" grid="1" gridSize="10" guides="1" tooltips="1" connect="1" arrows="1" fold="1" page="1" pageScale="1" pageWidth="850" pageHeight="1100" math="0" shadow="0">
      <root>
        <mxCell id="0" />
        <mxCell id="1" parent="0" />
        <mxCell id="6KYaLly6HS5aU-zTOS-U-103" value="" style="rounded=0;whiteSpace=wrap;html=1;fillColor=none;strokeWidth=2;strokeColor=light-dark(#555555, #ededed);" parent="1" vertex="1">
          <mxGeometry x="4350" y="449.5" width="560" height="90" as="geometry" />
        </mxCell>
        <mxCell id="6KYaLly6HS5aU-zTOS-U-104" value="&lt;p&gt;&lt;b&gt;9) Red Social&lt;/b&gt;&lt;/p&gt;&lt;p&gt;&lt;b&gt;&lt;br&gt;&lt;/b&gt;En una red social hay usuarios que publican contenidos y realizan publicaciones.&amp;nbsp;&lt;/p&gt;&lt;p&gt;Los usuarios pueden crear álbumes y agregar a otros usuarios para que participen en los mismos.&amp;nbsp;&lt;/p&gt;&lt;p&gt;Cada usuario que participa en un álbum puede cargar varios contenidos, que pueden ser fotos o vídeos.&lt;br&gt;&lt;/p&gt;&lt;p&gt;De las fotos se conoce la resolución y el formato, mientras que de los videos se conoce la &lt;br&gt;duración. De todo contenido se guarda un comentario y la fecha de publicación, y también debe &lt;br&gt;ser posible saber qué usuario lo cargó.&amp;nbsp;&lt;/p&gt;&lt;p&gt;Para cada álbum, además de los participantes, es importante saber quién fue su creador, y también su fecha de creación, nombre y descripción. Los usuarios también realizan publicaciones.&amp;nbsp;&lt;/p&gt;&lt;p&gt;De cada publicación se guarda un texto, fecha de&amp;nbsp;&lt;span style=&quot;background-color: transparent; color: light-dark(rgb(0, 0, 0), rgb(255, 255, 255));&quot;&gt;publicación y, opcionalmente, un contenido que puede ser una foto o un video (a lo sumo uno).&lt;/span&gt;&lt;/p&gt;&lt;p&gt;Las publicaciones también contienen etiquetas que facilitan su búsqueda. Muchas publicaciones pueden tener la misma etiqueta, de la cual se conoce sólo un nombre.&amp;nbsp;&lt;/p&gt;&lt;p&gt;De cada usuario se conoce su nombre de usuario, email y nombre completo.&amp;nbsp;&lt;/p&gt;" style="text;whiteSpace=wrap;html=1;" parent="1" vertex="1">
          <mxGeometry x="4280" y="40" width="670" height="310" as="geometry" />
        </mxCell>
        <mxCell id="6KYaLly6HS5aU-zTOS-U-105" style="edgeStyle=orthogonalEdgeStyle;rounded=0;orthogonalLoop=1;jettySize=auto;html=1;exitX=1;exitY=0.5;exitDx=0;exitDy=0;entryX=0;entryY=0.5;entryDx=0;entryDy=0;endArrow=none;endFill=0;" parent="1" edge="1">
          <mxGeometry relative="1" as="geometry">
            <mxPoint x="4700" y="494.31999999999994" as="sourcePoint" />
            <mxPoint x="4700" y="494.31999999999994" as="targetPoint" />
          </mxGeometry>
        </mxCell>
        <mxCell id="6KYaLly6HS5aU-zTOS-U-106" style="edgeStyle=orthogonalEdgeStyle;rounded=0;orthogonalLoop=1;jettySize=auto;html=1;entryX=0.5;entryY=0;entryDx=0;entryDy=0;endArrow=none;endFill=0;" parent="1" source="6KYaLly6HS5aU-zTOS-U-107" target="6KYaLly6HS5aU-zTOS-U-120" edge="1">
          <mxGeometry relative="1" as="geometry" />
        </mxCell>
        <mxCell id="6KYaLly6HS5aU-zTOS-U-107" value="Usuario" style="rounded=0;whiteSpace=wrap;html=1;fontSize=12;" parent="1" vertex="1">
          <mxGeometry x="4480" y="474.31999999999994" width="80" height="40" as="geometry" />
        </mxCell>
        <mxCell id="6KYaLly6HS5aU-zTOS-U-108" value="&lt;span style=&quot;text-wrap-mode: nowrap;&quot;&gt;nombre&lt;/span&gt;" style="text;html=1;align=left;verticalAlign=middle;whiteSpace=wrap;rounded=0;fontSize=9;container=0;" parent="1" vertex="1">
          <mxGeometry x="4819.889999999999" y="483.31999999999994" width="30" height="10" as="geometry" />
        </mxCell>
        <mxCell id="6KYaLly6HS5aU-zTOS-U-109" value="&lt;span style=&quot;text-wrap-mode: nowrap;&quot;&gt;descripcion&lt;/span&gt;" style="text;html=1;align=left;verticalAlign=middle;whiteSpace=wrap;rounded=0;fontSize=9;container=0;" parent="1" vertex="1">
          <mxGeometry x="4819.889999999999" y="496.31999999999994" width="30" height="10" as="geometry" />
        </mxCell>
        <mxCell id="6KYaLly6HS5aU-zTOS-U-110" value="" style="endArrow=none;html=1;rounded=0;entryX=0;entryY=0.5;entryDx=0;entryDy=0;" parent="1" target="6KYaLly6HS5aU-zTOS-U-111" edge="1">
          <mxGeometry width="50" height="50" relative="1" as="geometry">
            <mxPoint x="4779.889999999999" y="501.31999999999994" as="sourcePoint" />
            <mxPoint x="4809.889999999999" y="496.31999999999994" as="targetPoint" />
          </mxGeometry>
        </mxCell>
        <mxCell id="6KYaLly6HS5aU-zTOS-U-111" value="" style="ellipse;whiteSpace=wrap;html=1;aspect=fixed;container=0;" parent="1" vertex="1">
          <mxGeometry x="4809.889999999999" y="496.31999999999994" width="10" height="10" as="geometry" />
        </mxCell>
        <mxCell id="6KYaLly6HS5aU-zTOS-U-112" value="" style="endArrow=none;html=1;rounded=0;entryX=0;entryY=0.5;entryDx=0;entryDy=0;" parent="1" target="6KYaLly6HS5aU-zTOS-U-113" edge="1">
          <mxGeometry width="50" height="50" relative="1" as="geometry">
            <mxPoint x="4779.889999999999" y="488.31999999999994" as="sourcePoint" />
            <mxPoint x="4809.889999999999" y="483.31999999999994" as="targetPoint" />
          </mxGeometry>
        </mxCell>
        <mxCell id="6KYaLly6HS5aU-zTOS-U-113" value="" style="ellipse;whiteSpace=wrap;html=1;aspect=fixed;container=0;" parent="1" vertex="1">
          <mxGeometry x="4809.889999999999" y="483.31999999999994" width="10" height="10" as="geometry" />
        </mxCell>
        <mxCell id="6KYaLly6HS5aU-zTOS-U-114" value="" style="edgeStyle=orthogonalEdgeStyle;rounded=0;orthogonalLoop=1;jettySize=auto;html=1;exitX=1;exitY=0.5;exitDx=0;exitDy=0;entryX=0;entryY=0.5;entryDx=0;entryDy=0;endArrow=none;endFill=0;" parent="1" source="6KYaLly6HS5aU-zTOS-U-107" target="6KYaLly6HS5aU-zTOS-U-116" edge="1">
          <mxGeometry relative="1" as="geometry">
            <mxPoint x="4560" y="494.31999999999994" as="sourcePoint" />
            <mxPoint x="4660" y="494.31999999999994" as="targetPoint" />
          </mxGeometry>
        </mxCell>
        <mxCell id="6KYaLly6HS5aU-zTOS-U-115" style="edgeStyle=orthogonalEdgeStyle;rounded=0;orthogonalLoop=1;jettySize=auto;html=1;entryX=0;entryY=0.5;entryDx=0;entryDy=0;endArrow=none;endFill=0;" parent="1" source="6KYaLly6HS5aU-zTOS-U-116" edge="1">
          <mxGeometry relative="1" as="geometry">
            <mxPoint x="4700" y="494.31999999999994" as="targetPoint" />
          </mxGeometry>
        </mxCell>
        <mxCell id="6KYaLly6HS5aU-zTOS-U-116" value="&lt;font style=&quot;font-size: 9px;&quot;&gt;participa_en&lt;/font&gt;" style="rhombus;whiteSpace=wrap;html=1;align=center;fontSize=8;" parent="1" vertex="1">
          <mxGeometry x="4600" y="474.31999999999994" width="60" height="40" as="geometry" />
        </mxCell>
        <mxCell id="6KYaLly6HS5aU-zTOS-U-117" value="Album" style="rounded=0;whiteSpace=wrap;html=1;fontSize=12;" parent="1" vertex="1">
          <mxGeometry x="4700" y="471.90999999999997" width="80" height="44.82" as="geometry" />
        </mxCell>
        <mxCell id="6KYaLly6HS5aU-zTOS-U-118" style="edgeStyle=orthogonalEdgeStyle;rounded=0;orthogonalLoop=1;jettySize=auto;html=1;exitX=1;exitY=0.5;exitDx=0;exitDy=0;entryX=0;entryY=0.5;entryDx=0;entryDy=0;endArrow=none;endFill=0;" parent="1" edge="1">
          <mxGeometry relative="1" as="geometry">
            <mxPoint x="4869.889999999999" y="489.81999999999994" as="sourcePoint" />
            <mxPoint x="4869.889999999999" y="489.81999999999994" as="targetPoint" />
          </mxGeometry>
        </mxCell>
        <mxCell id="6KYaLly6HS5aU-zTOS-U-119" style="edgeStyle=orthogonalEdgeStyle;rounded=0;orthogonalLoop=1;jettySize=auto;html=1;entryX=0.5;entryY=0;entryDx=0;entryDy=0;endArrow=none;endFill=0;" parent="1" source="6KYaLly6HS5aU-zTOS-U-120" target="6KYaLly6HS5aU-zTOS-U-132" edge="1">
          <mxGeometry relative="1" as="geometry" />
        </mxCell>
        <mxCell id="6KYaLly6HS5aU-zTOS-U-120" value="realiza" style="rhombus;whiteSpace=wrap;html=1;align=center;fontSize=10;" parent="1" vertex="1">
          <mxGeometry x="4490" y="553.4999999999999" width="60" height="40" as="geometry" />
        </mxCell>
        <mxCell id="6KYaLly6HS5aU-zTOS-U-121" value="" style="endArrow=none;html=1;rounded=0;entryX=0;entryY=0.5;entryDx=0;entryDy=0;" parent="1" edge="1">
          <mxGeometry width="50" height="50" relative="1" as="geometry">
            <mxPoint x="4450" y="492.31999999999994" as="sourcePoint" />
            <mxPoint x="4480" y="492.31999999999994" as="targetPoint" />
          </mxGeometry>
        </mxCell>
        <mxCell id="6KYaLly6HS5aU-zTOS-U-122" value="" style="endArrow=none;html=1;rounded=0;entryX=0;entryY=0.5;entryDx=0;entryDy=0;" parent="1" edge="1">
          <mxGeometry width="50" height="50" relative="1" as="geometry">
            <mxPoint x="4450" y="479.31999999999994" as="sourcePoint" />
            <mxPoint x="4480" y="479.31999999999994" as="targetPoint" />
          </mxGeometry>
        </mxCell>
        <mxCell id="6KYaLly6HS5aU-zTOS-U-123" value="" style="ellipse;whiteSpace=wrap;html=1;aspect=fixed;fillColor=#FFFFFF;gradientColor=none;fontColor=#FFFFFF;labelBorderColor=default;" parent="1" vertex="1">
          <mxGeometry x="4440" y="487.06999999999994" width="10" height="10" as="geometry" />
        </mxCell>
        <mxCell id="6KYaLly6HS5aU-zTOS-U-124" value="" style="ellipse;whiteSpace=wrap;html=1;aspect=fixed;fillColor=#000000;" parent="1" vertex="1">
          <mxGeometry x="4440" y="474.31999999999994" width="10" height="10" as="geometry" />
        </mxCell>
        <mxCell id="6KYaLly6HS5aU-zTOS-U-125" value="&lt;div style=&quot;text-align: left;&quot;&gt;&lt;span style=&quot;text-wrap-mode: nowrap;&quot;&gt;email&lt;/span&gt;&lt;/div&gt;" style="text;html=1;align=right;verticalAlign=middle;whiteSpace=wrap;rounded=1;fontSize=9;" parent="1" vertex="1">
          <mxGeometry x="4400" y="474.31999999999994" width="40" height="10" as="geometry" />
        </mxCell>
        <mxCell id="6KYaLly6HS5aU-zTOS-U-126" value="&lt;span style=&quot;text-align: left; text-wrap-mode: nowrap;&quot;&gt;usuario&lt;/span&gt;" style="text;html=1;align=right;verticalAlign=middle;whiteSpace=wrap;rounded=1;fontSize=9;" parent="1" vertex="1">
          <mxGeometry x="4400" y="487.31999999999994" width="40" height="10" as="geometry" />
        </mxCell>
        <mxCell id="6KYaLly6HS5aU-zTOS-U-127" value="" style="endArrow=none;html=1;rounded=0;entryX=0;entryY=0.5;entryDx=0;entryDy=0;" parent="1" edge="1">
          <mxGeometry width="50" height="50" relative="1" as="geometry">
            <mxPoint x="4450" y="506.06999999999994" as="sourcePoint" />
            <mxPoint x="4480" y="506.06999999999994" as="targetPoint" />
          </mxGeometry>
        </mxCell>
        <mxCell id="6KYaLly6HS5aU-zTOS-U-128" value="" style="ellipse;whiteSpace=wrap;html=1;aspect=fixed;" parent="1" vertex="1">
          <mxGeometry x="4440" y="501.06999999999994" width="10" height="10" as="geometry" />
        </mxCell>
        <mxCell id="6KYaLly6HS5aU-zTOS-U-129" value="&lt;span style=&quot;text-align: left; text-wrap-mode: nowrap;&quot;&gt;nombre_y_apellido&lt;/span&gt;" style="text;html=1;align=right;verticalAlign=middle;whiteSpace=wrap;rounded=1;fontSize=9;" parent="1" vertex="1">
          <mxGeometry x="4400" y="501.06999999999994" width="40" height="10" as="geometry" />
        </mxCell>
        <mxCell id="6KYaLly6HS5aU-zTOS-U-130" style="edgeStyle=orthogonalEdgeStyle;rounded=0;orthogonalLoop=1;jettySize=auto;html=1;entryX=0.5;entryY=0;entryDx=0;entryDy=0;endArrow=none;endFill=0;" parent="1" source="6KYaLly6HS5aU-zTOS-U-132" target="6KYaLly6HS5aU-zTOS-U-134" edge="1">
          <mxGeometry relative="1" as="geometry" />
        </mxCell>
        <mxCell id="6KYaLly6HS5aU-zTOS-U-131" style="edgeStyle=orthogonalEdgeStyle;rounded=0;orthogonalLoop=1;jettySize=auto;html=1;entryX=0;entryY=0.5;entryDx=0;entryDy=0;endArrow=none;endFill=0;" parent="1" source="6KYaLly6HS5aU-zTOS-U-154" target="6KYaLly6HS5aU-zTOS-U-141" edge="1">
          <mxGeometry relative="1" as="geometry" />
        </mxCell>
        <mxCell id="6KYaLly6HS5aU-zTOS-U-132" value="Publicacion" style="rounded=0;whiteSpace=wrap;html=1;fontSize=12;" parent="1" vertex="1">
          <mxGeometry x="4480" y="629.82" width="80" height="40" as="geometry" />
        </mxCell>
        <mxCell id="6KYaLly6HS5aU-zTOS-U-133" style="edgeStyle=orthogonalEdgeStyle;rounded=0;orthogonalLoop=1;jettySize=auto;html=1;entryX=0.5;entryY=0;entryDx=0;entryDy=0;endArrow=none;endFill=0;" parent="1" source="6KYaLly6HS5aU-zTOS-U-134" target="6KYaLly6HS5aU-zTOS-U-135" edge="1">
          <mxGeometry relative="1" as="geometry" />
        </mxCell>
        <mxCell id="6KYaLly6HS5aU-zTOS-U-134" value="tiene" style="rhombus;whiteSpace=wrap;html=1;align=center;fontSize=10;" parent="1" vertex="1">
          <mxGeometry x="4490" y="708.4999999999999" width="60" height="40" as="geometry" />
        </mxCell>
        <mxCell id="6KYaLly6HS5aU-zTOS-U-135" value="Etiqueta" style="rounded=0;whiteSpace=wrap;html=1;fontSize=12;" parent="1" vertex="1">
          <mxGeometry x="4480" y="784.82" width="80" height="40" as="geometry" />
        </mxCell>
        <mxCell id="6KYaLly6HS5aU-zTOS-U-136" value="Foto" style="rounded=0;whiteSpace=wrap;html=1;fontSize=10;" parent="1" vertex="1">
          <mxGeometry x="4640" y="699.5000000000005" width="80" height="40" as="geometry" />
        </mxCell>
        <mxCell id="6KYaLly6HS5aU-zTOS-U-137" value="Video" style="rounded=0;whiteSpace=wrap;html=1;fontSize=10;" parent="1" vertex="1">
          <mxGeometry x="4760" y="699.5000000000005" width="80" height="40" as="geometry" />
        </mxCell>
        <mxCell id="6KYaLly6HS5aU-zTOS-U-138" value="" style="endArrow=none;html=1;rounded=0;exitX=0.5;exitY=0;exitDx=0;exitDy=0;entryX=0.25;entryY=1;entryDx=0;entryDy=0;" parent="1" source="6KYaLly6HS5aU-zTOS-U-136" edge="1">
          <mxGeometry width="50" height="50" relative="1" as="geometry">
            <mxPoint x="4830" y="831.5000000000005" as="sourcePoint" />
            <mxPoint x="4720" y="669.5000000000005" as="targetPoint" />
          </mxGeometry>
        </mxCell>
        <mxCell id="6KYaLly6HS5aU-zTOS-U-139" value="" style="endArrow=none;html=1;rounded=0;exitX=0.5;exitY=0;exitDx=0;exitDy=0;entryX=0.75;entryY=1;entryDx=0;entryDy=0;" parent="1" source="6KYaLly6HS5aU-zTOS-U-137" edge="1">
          <mxGeometry width="50" height="50" relative="1" as="geometry">
            <mxPoint x="4805" y="804.5000000000005" as="sourcePoint" />
            <mxPoint x="4760" y="669.5000000000005" as="targetPoint" />
          </mxGeometry>
        </mxCell>
        <mxCell id="6KYaLly6HS5aU-zTOS-U-140" value="&lt;span style=&quot;text-wrap-mode: nowrap;&quot;&gt;(G)&lt;/span&gt;" style="text;html=1;align=center;verticalAlign=middle;whiteSpace=wrap;rounded=0;fontSize=12;container=0;" parent="1" vertex="1">
          <mxGeometry x="4725" y="679.5000000000005" width="30" height="10" as="geometry" />
        </mxCell>
        <mxCell id="6KYaLly6HS5aU-zTOS-U-141" value="Contenido" style="rounded=0;whiteSpace=wrap;html=1;fontSize=11;" parent="1" vertex="1">
          <mxGeometry x="4700" y="629.5" width="80" height="40" as="geometry" />
        </mxCell>
        <mxCell id="6KYaLly6HS5aU-zTOS-U-142" value="&lt;div style=&quot;&quot;&gt;&lt;span style=&quot;text-wrap-mode: nowrap;&quot;&gt;resolucion&lt;/span&gt;&lt;/div&gt;" style="text;html=1;align=center;verticalAlign=middle;whiteSpace=wrap;rounded=1;fontSize=9;" parent="1" vertex="1">
          <mxGeometry x="4635" y="770.4899999999999" width="40" height="10" as="geometry" />
        </mxCell>
        <mxCell id="6KYaLly6HS5aU-zTOS-U-143" value="&lt;span style=&quot;text-wrap-mode: nowrap;&quot;&gt;formato&lt;/span&gt;" style="text;html=1;align=center;verticalAlign=middle;whiteSpace=wrap;rounded=1;fontSize=9;" parent="1" vertex="1">
          <mxGeometry x="4685" y="770.66" width="40" height="10" as="geometry" />
        </mxCell>
        <mxCell id="6KYaLly6HS5aU-zTOS-U-144" value="&lt;span style=&quot;text-wrap-mode: nowrap;&quot;&gt;comentario&lt;/span&gt;" style="text;html=1;align=left;verticalAlign=middle;whiteSpace=wrap;rounded=0;fontSize=9;container=0;" parent="1" vertex="1">
          <mxGeometry x="4820" y="644.82" width="30" height="10" as="geometry" />
        </mxCell>
        <mxCell id="6KYaLly6HS5aU-zTOS-U-145" value="&lt;span style=&quot;text-wrap-mode: nowrap;&quot;&gt;fecha_de_publicacion&lt;/span&gt;" style="text;html=1;align=left;verticalAlign=middle;whiteSpace=wrap;rounded=0;fontSize=9;container=0;" parent="1" vertex="1">
          <mxGeometry x="4820" y="657.82" width="30" height="10" as="geometry" />
        </mxCell>
        <mxCell id="6KYaLly6HS5aU-zTOS-U-146" value="" style="endArrow=none;html=1;rounded=0;entryX=0;entryY=0.5;entryDx=0;entryDy=0;" parent="1" target="6KYaLly6HS5aU-zTOS-U-147" edge="1">
          <mxGeometry width="50" height="50" relative="1" as="geometry">
            <mxPoint x="4780" y="662.82" as="sourcePoint" />
            <mxPoint x="4810" y="657.82" as="targetPoint" />
          </mxGeometry>
        </mxCell>
        <mxCell id="6KYaLly6HS5aU-zTOS-U-147" value="" style="ellipse;whiteSpace=wrap;html=1;aspect=fixed;container=0;" parent="1" vertex="1">
          <mxGeometry x="4810" y="657.82" width="10" height="10" as="geometry" />
        </mxCell>
        <mxCell id="6KYaLly6HS5aU-zTOS-U-148" value="" style="endArrow=none;html=1;rounded=0;entryX=0;entryY=0.5;entryDx=0;entryDy=0;" parent="1" target="6KYaLly6HS5aU-zTOS-U-149" edge="1">
          <mxGeometry width="50" height="50" relative="1" as="geometry">
            <mxPoint x="4780" y="649.82" as="sourcePoint" />
            <mxPoint x="4810" y="644.82" as="targetPoint" />
          </mxGeometry>
        </mxCell>
        <mxCell id="6KYaLly6HS5aU-zTOS-U-149" value="" style="ellipse;whiteSpace=wrap;html=1;aspect=fixed;container=0;" parent="1" vertex="1">
          <mxGeometry x="4810" y="644.82" width="10" height="10" as="geometry" />
        </mxCell>
        <mxCell id="6KYaLly6HS5aU-zTOS-U-150" value="&lt;span style=&quot;text-wrap-mode: nowrap;&quot;&gt;#contenido&lt;/span&gt;" style="text;html=1;align=left;verticalAlign=middle;whiteSpace=wrap;rounded=0;fontSize=9;container=0;" parent="1" vertex="1">
          <mxGeometry x="4820" y="631.32" width="30" height="10" as="geometry" />
        </mxCell>
        <mxCell id="6KYaLly6HS5aU-zTOS-U-151" value="" style="endArrow=none;html=1;rounded=0;entryX=0;entryY=0.5;entryDx=0;entryDy=0;" parent="1" target="6KYaLly6HS5aU-zTOS-U-152" edge="1">
          <mxGeometry width="50" height="50" relative="1" as="geometry">
            <mxPoint x="4780" y="636.32" as="sourcePoint" />
            <mxPoint x="4810" y="631.32" as="targetPoint" />
          </mxGeometry>
        </mxCell>
        <mxCell id="6KYaLly6HS5aU-zTOS-U-152" value="" style="ellipse;whiteSpace=wrap;html=1;aspect=fixed;container=0;fillColor=#000000;" parent="1" vertex="1">
          <mxGeometry x="4810" y="631.32" width="10" height="10" as="geometry" />
        </mxCell>
        <mxCell id="6KYaLly6HS5aU-zTOS-U-153" value="" style="edgeStyle=orthogonalEdgeStyle;rounded=0;orthogonalLoop=1;jettySize=auto;html=1;entryX=0;entryY=0.5;entryDx=0;entryDy=0;endArrow=none;endFill=0;" parent="1" source="6KYaLly6HS5aU-zTOS-U-132" target="6KYaLly6HS5aU-zTOS-U-154" edge="1">
          <mxGeometry relative="1" as="geometry">
            <mxPoint x="4560" y="649.5" as="sourcePoint" />
            <mxPoint x="4700" y="649.5" as="targetPoint" />
          </mxGeometry>
        </mxCell>
        <mxCell id="6KYaLly6HS5aU-zTOS-U-154" value="posee" style="rhombus;whiteSpace=wrap;html=1;align=center;fontSize=10;" parent="1" vertex="1">
          <mxGeometry x="4600" y="629.82" width="60" height="40" as="geometry" />
        </mxCell>
        <mxCell id="6KYaLly6HS5aU-zTOS-U-155" value="" style="ellipse;whiteSpace=wrap;html=1;aspect=fixed;fillColor=#FFFFFF;gradientColor=none;fontColor=#FFFFFF;labelBorderColor=default;" parent="1" vertex="1">
          <mxGeometry x="4650" y="759.49" width="10" height="10" as="geometry" />
        </mxCell>
        <mxCell id="6KYaLly6HS5aU-zTOS-U-156" value="" style="endArrow=none;html=1;rounded=0;entryX=0.5;entryY=0;entryDx=0;entryDy=0;exitX=0.189;exitY=0.996;exitDx=0;exitDy=0;exitPerimeter=0;" parent="1" source="6KYaLly6HS5aU-zTOS-U-136" target="6KYaLly6HS5aU-zTOS-U-155" edge="1">
          <mxGeometry width="50" height="50" relative="1" as="geometry">
            <mxPoint x="4640" y="739.5" as="sourcePoint" />
            <mxPoint x="4670" y="739.5" as="targetPoint" />
          </mxGeometry>
        </mxCell>
        <mxCell id="6KYaLly6HS5aU-zTOS-U-157" value="" style="ellipse;whiteSpace=wrap;html=1;aspect=fixed;fillColor=#FFFFFF;gradientColor=none;fontColor=#FFFFFF;labelBorderColor=default;" parent="1" vertex="1">
          <mxGeometry x="4700" y="759.49" width="10" height="10" as="geometry" />
        </mxCell>
        <mxCell id="6KYaLly6HS5aU-zTOS-U-158" value="" style="endArrow=none;html=1;rounded=0;entryX=0.5;entryY=0;entryDx=0;entryDy=0;exitX=0.189;exitY=0.996;exitDx=0;exitDy=0;exitPerimeter=0;" parent="1" target="6KYaLly6HS5aU-zTOS-U-157" edge="1">
          <mxGeometry width="50" height="50" relative="1" as="geometry">
            <mxPoint x="4705" y="739.5" as="sourcePoint" />
            <mxPoint x="4720" y="739.5" as="targetPoint" />
          </mxGeometry>
        </mxCell>
        <mxCell id="6KYaLly6HS5aU-zTOS-U-159" value="&lt;span style=&quot;text-align: left; text-wrap-mode: nowrap;&quot;&gt;duracion&lt;/span&gt;" style="text;html=1;align=center;verticalAlign=middle;whiteSpace=wrap;rounded=1;fontSize=9;" parent="1" vertex="1">
          <mxGeometry x="4781" y="770.49" width="40" height="10" as="geometry" />
        </mxCell>
        <mxCell id="6KYaLly6HS5aU-zTOS-U-160" value="" style="ellipse;whiteSpace=wrap;html=1;aspect=fixed;fillColor=#FFFFFF;gradientColor=none;fontColor=#FFFFFF;labelBorderColor=default;" parent="1" vertex="1">
          <mxGeometry x="4796" y="759.32" width="10" height="10" as="geometry" />
        </mxCell>
        <mxCell id="6KYaLly6HS5aU-zTOS-U-161" value="" style="endArrow=none;html=1;rounded=0;entryX=0.5;entryY=0;entryDx=0;entryDy=0;exitX=0.189;exitY=0.996;exitDx=0;exitDy=0;exitPerimeter=0;" parent="1" target="6KYaLly6HS5aU-zTOS-U-160" edge="1">
          <mxGeometry width="50" height="50" relative="1" as="geometry">
            <mxPoint x="4801" y="739.33" as="sourcePoint" />
            <mxPoint x="4816" y="739.33" as="targetPoint" />
          </mxGeometry>
        </mxCell>
        <mxCell id="6KYaLly6HS5aU-zTOS-U-162" value="&lt;span style=&quot;text-wrap-mode: nowrap;&quot;&gt;fecha_creacion&lt;/span&gt;" style="text;html=1;align=left;verticalAlign=middle;whiteSpace=wrap;rounded=0;fontSize=9;container=0;" parent="1" vertex="1">
          <mxGeometry x="4819.91" y="509.32000000000005" width="30" height="10" as="geometry" />
        </mxCell>
        <mxCell id="6KYaLly6HS5aU-zTOS-U-163" value="" style="endArrow=none;html=1;rounded=0;entryX=0;entryY=0.5;entryDx=0;entryDy=0;" parent="1" target="6KYaLly6HS5aU-zTOS-U-164" edge="1">
          <mxGeometry width="50" height="50" relative="1" as="geometry">
            <mxPoint x="4779.91" y="514.32" as="sourcePoint" />
            <mxPoint x="4809.91" y="509.32000000000005" as="targetPoint" />
          </mxGeometry>
        </mxCell>
        <mxCell id="6KYaLly6HS5aU-zTOS-U-164" value="" style="ellipse;whiteSpace=wrap;html=1;aspect=fixed;container=0;" parent="1" vertex="1">
          <mxGeometry x="4809.91" y="509.32000000000005" width="10" height="10" as="geometry" />
        </mxCell>
        <mxCell id="6KYaLly6HS5aU-zTOS-U-165" style="edgeStyle=orthogonalEdgeStyle;rounded=0;orthogonalLoop=1;jettySize=auto;html=1;exitX=1;exitY=0.5;exitDx=0;exitDy=0;entryX=0;entryY=0.5;entryDx=0;entryDy=0;endArrow=none;endFill=0;" parent="1" edge="1">
          <mxGeometry relative="1" as="geometry">
            <mxPoint x="4869.91" y="502.82000000000005" as="sourcePoint" />
            <mxPoint x="4869.91" y="502.82000000000005" as="targetPoint" />
          </mxGeometry>
        </mxCell>
        <mxCell id="6KYaLly6HS5aU-zTOS-U-166" value="&lt;span style=&quot;text-wrap-mode: nowrap;&quot;&gt;#album&lt;/span&gt;" style="text;html=1;align=left;verticalAlign=middle;whiteSpace=wrap;rounded=0;fontSize=9;container=0;" parent="1" vertex="1">
          <mxGeometry x="4819.89" y="469.32000000000005" width="30" height="10" as="geometry" />
        </mxCell>
        <mxCell id="6KYaLly6HS5aU-zTOS-U-167" value="" style="endArrow=none;html=1;rounded=0;entryX=0;entryY=0.5;entryDx=0;entryDy=0;" parent="1" target="6KYaLly6HS5aU-zTOS-U-168" edge="1">
          <mxGeometry width="50" height="50" relative="1" as="geometry">
            <mxPoint x="4780" y="474.32000000000005" as="sourcePoint" />
            <mxPoint x="4810" y="469.32000000000005" as="targetPoint" />
          </mxGeometry>
        </mxCell>
        <mxCell id="6KYaLly6HS5aU-zTOS-U-168" value="" style="ellipse;whiteSpace=wrap;html=1;aspect=fixed;container=0;fillColor=#000000;" parent="1" vertex="1">
          <mxGeometry x="4810" y="469.32000000000005" width="10" height="10" as="geometry" />
        </mxCell>
        <mxCell id="6KYaLly6HS5aU-zTOS-U-169" style="edgeStyle=orthogonalEdgeStyle;rounded=0;orthogonalLoop=1;jettySize=auto;html=1;exitX=1;exitY=0.5;exitDx=0;exitDy=0;entryX=0;entryY=0.5;entryDx=0;entryDy=0;endArrow=none;endFill=0;" parent="1" edge="1">
          <mxGeometry relative="1" as="geometry">
            <mxPoint x="4870" y="475.82000000000005" as="sourcePoint" />
            <mxPoint x="4870" y="475.82000000000005" as="targetPoint" />
          </mxGeometry>
        </mxCell>
        <mxCell id="6KYaLly6HS5aU-zTOS-U-170" value="" style="endArrow=none;html=1;rounded=0;entryX=0;entryY=0.5;entryDx=0;entryDy=0;" parent="1" edge="1">
          <mxGeometry width="50" height="50" relative="1" as="geometry">
            <mxPoint x="4450" y="649.78" as="sourcePoint" />
            <mxPoint x="4480" y="649.78" as="targetPoint" />
          </mxGeometry>
        </mxCell>
        <mxCell id="6KYaLly6HS5aU-zTOS-U-171" value="" style="endArrow=none;html=1;rounded=0;entryX=0;entryY=0.5;entryDx=0;entryDy=0;" parent="1" edge="1">
          <mxGeometry width="50" height="50" relative="1" as="geometry">
            <mxPoint x="4450" y="636.78" as="sourcePoint" />
            <mxPoint x="4480" y="636.78" as="targetPoint" />
          </mxGeometry>
        </mxCell>
        <mxCell id="6KYaLly6HS5aU-zTOS-U-172" value="" style="ellipse;whiteSpace=wrap;html=1;aspect=fixed;fillColor=#FFFFFF;gradientColor=none;fontColor=#FFFFFF;labelBorderColor=default;" parent="1" vertex="1">
          <mxGeometry x="4440" y="644.78" width="10" height="10" as="geometry" />
        </mxCell>
        <mxCell id="6KYaLly6HS5aU-zTOS-U-173" value="" style="ellipse;whiteSpace=wrap;html=1;aspect=fixed;fillColor=#000000;" parent="1" vertex="1">
          <mxGeometry x="4440" y="631.11" width="10" height="10" as="geometry" />
        </mxCell>
        <mxCell id="6KYaLly6HS5aU-zTOS-U-174" value="&lt;div style=&quot;text-align: left;&quot;&gt;&lt;span style=&quot;background-color: transparent; text-wrap-mode: nowrap;&quot;&gt;texto&lt;/span&gt;&lt;/div&gt;" style="text;html=1;align=right;verticalAlign=middle;whiteSpace=wrap;rounded=1;fontSize=9;" parent="1" vertex="1">
          <mxGeometry x="4400" y="644.78" width="40" height="10" as="geometry" />
        </mxCell>
        <mxCell id="6KYaLly6HS5aU-zTOS-U-175" value="&lt;span style=&quot;text-align: left; text-wrap-mode: nowrap;&quot;&gt;#publicacion&lt;/span&gt;" style="text;html=1;align=right;verticalAlign=middle;whiteSpace=wrap;rounded=1;fontSize=9;" parent="1" vertex="1">
          <mxGeometry x="4400" y="631.11" width="40" height="10" as="geometry" />
        </mxCell>
        <mxCell id="6KYaLly6HS5aU-zTOS-U-176" value="" style="endArrow=none;html=1;rounded=0;entryX=0;entryY=0.5;entryDx=0;entryDy=0;" parent="1" edge="1">
          <mxGeometry width="50" height="50" relative="1" as="geometry">
            <mxPoint x="4450" y="663.53" as="sourcePoint" />
            <mxPoint x="4480" y="663.53" as="targetPoint" />
          </mxGeometry>
        </mxCell>
        <mxCell id="6KYaLly6HS5aU-zTOS-U-177" value="" style="ellipse;whiteSpace=wrap;html=1;aspect=fixed;" parent="1" vertex="1">
          <mxGeometry x="4440" y="658.53" width="10" height="10" as="geometry" />
        </mxCell>
        <mxCell id="6KYaLly6HS5aU-zTOS-U-178" value="&lt;span style=&quot;text-align: left; text-wrap-mode: nowrap;&quot;&gt;fecha_publicacion&lt;/span&gt;" style="text;html=1;align=right;verticalAlign=middle;whiteSpace=wrap;rounded=1;fontSize=9;" parent="1" vertex="1">
          <mxGeometry x="4400" y="658.53" width="40" height="10" as="geometry" />
        </mxCell>
        <mxCell id="6KYaLly6HS5aU-zTOS-U-179" value="" style="endArrow=none;html=1;rounded=0;entryX=0;entryY=0.5;entryDx=0;entryDy=0;" parent="1" edge="1">
          <mxGeometry width="50" height="50" relative="1" as="geometry">
            <mxPoint x="4450" y="811.3399999999999" as="sourcePoint" />
            <mxPoint x="4480" y="811.3399999999999" as="targetPoint" />
          </mxGeometry>
        </mxCell>
        <mxCell id="6KYaLly6HS5aU-zTOS-U-180" value="" style="endArrow=none;html=1;rounded=0;entryX=0;entryY=0.5;entryDx=0;entryDy=0;" parent="1" edge="1">
          <mxGeometry width="50" height="50" relative="1" as="geometry">
            <mxPoint x="4450" y="798.3399999999999" as="sourcePoint" />
            <mxPoint x="4480" y="798.3399999999999" as="targetPoint" />
          </mxGeometry>
        </mxCell>
        <mxCell id="6KYaLly6HS5aU-zTOS-U-181" value="" style="ellipse;whiteSpace=wrap;html=1;aspect=fixed;fillColor=#FFFFFF;gradientColor=none;fontColor=#FFFFFF;labelBorderColor=default;" parent="1" vertex="1">
          <mxGeometry x="4440" y="806.3399999999999" width="10" height="10" as="geometry" />
        </mxCell>
        <mxCell id="6KYaLly6HS5aU-zTOS-U-182" value="" style="ellipse;whiteSpace=wrap;html=1;aspect=fixed;fillColor=#000000;" parent="1" vertex="1">
          <mxGeometry x="4440" y="792.67" width="10" height="10" as="geometry" />
        </mxCell>
        <mxCell id="6KYaLly6HS5aU-zTOS-U-183" value="&lt;div style=&quot;text-align: left;&quot;&gt;&lt;span style=&quot;background-color: transparent; text-wrap-mode: nowrap;&quot;&gt;nombre&lt;/span&gt;&lt;/div&gt;" style="text;html=1;align=right;verticalAlign=middle;whiteSpace=wrap;rounded=1;fontSize=9;" parent="1" vertex="1">
          <mxGeometry x="4400" y="806.3399999999999" width="40" height="10" as="geometry" />
        </mxCell>
        <mxCell id="6KYaLly6HS5aU-zTOS-U-184" value="&lt;span style=&quot;text-align: left; text-wrap-mode: nowrap;&quot;&gt;#etiqueta&lt;/span&gt;" style="text;html=1;align=right;verticalAlign=middle;whiteSpace=wrap;rounded=1;fontSize=9;" parent="1" vertex="1">
          <mxGeometry x="4400" y="792.67" width="40" height="10" as="geometry" />
        </mxCell>
        <mxCell id="6KYaLly6HS5aU-zTOS-U-185" value="(1,N)" style="text;html=1;align=center;verticalAlign=middle;whiteSpace=wrap;rounded=0;fontSize=9;" parent="1" vertex="1">
          <mxGeometry x="4521" y="516.73" width="22" height="10" as="geometry" />
        </mxCell>
        <mxCell id="6KYaLly6HS5aU-zTOS-U-186" value="(0,N)" style="text;html=1;align=center;verticalAlign=middle;whiteSpace=wrap;rounded=0;fontSize=9;" parent="1" vertex="1">
          <mxGeometry x="4660" y="519.32" width="22" height="10" as="geometry" />
        </mxCell>
        <mxCell id="6KYaLly6HS5aU-zTOS-U-187" value="&lt;font size=&quot;1&quot;&gt;crea&lt;/font&gt;" style="rhombus;whiteSpace=wrap;html=1;align=center;fontSize=8;" parent="1" vertex="1">
          <mxGeometry x="4600" y="553.4999999999999" width="60" height="40" as="geometry" />
        </mxCell>
        <mxCell id="6KYaLly6HS5aU-zTOS-U-188" value="" style="endArrow=none;html=1;rounded=0;exitX=1;exitY=1;exitDx=0;exitDy=0;entryX=0;entryY=0;entryDx=0;entryDy=0;" parent="1" source="6KYaLly6HS5aU-zTOS-U-107" target="6KYaLly6HS5aU-zTOS-U-187" edge="1">
          <mxGeometry width="50" height="50" relative="1" as="geometry">
            <mxPoint x="4610" y="519.5" as="sourcePoint" />
            <mxPoint x="4510.86155378486" y="529.5" as="targetPoint" />
          </mxGeometry>
        </mxCell>
        <mxCell id="6KYaLly6HS5aU-zTOS-U-189" value="" style="endArrow=none;html=1;rounded=0;entryX=0;entryY=1;entryDx=0;entryDy=0;exitX=1;exitY=0;exitDx=0;exitDy=0;" parent="1" source="6KYaLly6HS5aU-zTOS-U-187" target="6KYaLly6HS5aU-zTOS-U-117" edge="1">
          <mxGeometry width="50" height="50" relative="1" as="geometry">
            <mxPoint x="4645" y="428.82" as="sourcePoint" />
            <mxPoint x="4700" y="475.81999999999994" as="targetPoint" />
          </mxGeometry>
        </mxCell>
        <mxCell id="6KYaLly6HS5aU-zTOS-U-190" style="edgeStyle=orthogonalEdgeStyle;rounded=0;orthogonalLoop=1;jettySize=auto;html=1;entryX=0.5;entryY=0;entryDx=0;entryDy=0;endArrow=none;endFill=0;exitX=1;exitY=0.5;exitDx=0;exitDy=0;strokeWidth=2;strokeColor=light-dark(#555555, #ededed);" parent="1" source="6KYaLly6HS5aU-zTOS-U-192" edge="1">
          <mxGeometry relative="1" as="geometry">
            <mxPoint x="4520" y="474.31999999999994" as="targetPoint" />
            <mxPoint x="4520" y="438.31999999999994" as="sourcePoint" />
          </mxGeometry>
        </mxCell>
        <mxCell id="6KYaLly6HS5aU-zTOS-U-191" style="edgeStyle=orthogonalEdgeStyle;rounded=0;orthogonalLoop=1;jettySize=auto;html=1;entryX=0;entryY=0.5;entryDx=0;entryDy=0;endArrow=none;endFill=0;strokeWidth=2;strokeColor=light-dark(#555555, #ededed);" parent="1" source="6KYaLly6HS5aU-zTOS-U-192" target="6KYaLly6HS5aU-zTOS-U-103" edge="1">
          <mxGeometry relative="1" as="geometry">
            <Array as="points">
              <mxPoint x="4320" y="420.5" />
              <mxPoint x="4320" y="492.5" />
              <mxPoint x="4350" y="492.5" />
            </Array>
          </mxGeometry>
        </mxCell>
        <mxCell id="6KYaLly6HS5aU-zTOS-U-192" value="agrega" style="rhombus;whiteSpace=wrap;html=1;align=center;fontSize=10;strokeWidth=2;strokeColor=light-dark(#555555, #ededed);" parent="1" vertex="1">
          <mxGeometry x="4390" y="400.32" width="60" height="40" as="geometry" />
        </mxCell>
        <mxCell id="6KYaLly6HS5aU-zTOS-U-193" value="es _agregado" style="text;strokeColor=none;align=center;fillColor=none;html=1;verticalAlign=middle;whiteSpace=wrap;rounded=0;fontSize=10;" parent="1" vertex="1">
          <mxGeometry x="4320" y="403.09000000000003" width="70" height="15.14" as="geometry" />
        </mxCell>
        <mxCell id="6KYaLly6HS5aU-zTOS-U-194" value="agrega_a" style="text;strokeColor=none;align=center;fillColor=none;html=1;verticalAlign=middle;whiteSpace=wrap;rounded=0;fontSize=10;" parent="1" vertex="1">
          <mxGeometry x="4460" y="402.66" width="50" height="16" as="geometry" />
        </mxCell>
        <mxCell id="6KYaLly6HS5aU-zTOS-U-195" value="(0,N)" style="text;html=1;align=center;verticalAlign=middle;whiteSpace=wrap;rounded=0;fontSize=9;" parent="1" vertex="1">
          <mxGeometry x="4563" y="481.4999999999999" width="22" height="10" as="geometry" />
        </mxCell>
        <mxCell id="6KYaLly6HS5aU-zTOS-U-196" value="(0,N)" style="text;html=1;align=center;verticalAlign=middle;whiteSpace=wrap;rounded=0;fontSize=9;" parent="1" vertex="1">
          <mxGeometry x="4521" y="616.82" width="22" height="10" as="geometry" />
        </mxCell>
        <mxCell id="6KYaLly6HS5aU-zTOS-U-197" value="(1,1)" style="text;html=1;align=center;verticalAlign=middle;whiteSpace=wrap;rounded=0;fontSize=9;" parent="1" vertex="1">
          <mxGeometry x="4578" y="519.32" width="22" height="10" as="geometry" />
        </mxCell>
        <mxCell id="6KYaLly6HS5aU-zTOS-U-198" value="(1,N)" style="text;html=1;align=center;verticalAlign=middle;whiteSpace=wrap;rounded=0;fontSize=9;" parent="1" vertex="1">
          <mxGeometry x="4675" y="481.5" width="22" height="10" as="geometry" />
        </mxCell>
        <mxCell id="6KYaLly6HS5aU-zTOS-U-199" style="edgeStyle=orthogonalEdgeStyle;rounded=0;orthogonalLoop=1;jettySize=auto;html=1;entryX=0.5;entryY=0;entryDx=0;entryDy=0;endArrow=none;endFill=0;strokeWidth=2;strokeColor=light-dark(#555555, #ededed);" parent="1" target="6KYaLly6HS5aU-zTOS-U-201" edge="1">
          <mxGeometry relative="1" as="geometry">
            <mxPoint x="4740" y="539.5" as="sourcePoint" />
          </mxGeometry>
        </mxCell>
        <mxCell id="6KYaLly6HS5aU-zTOS-U-200" style="edgeStyle=orthogonalEdgeStyle;rounded=0;orthogonalLoop=1;jettySize=auto;html=1;entryX=0.5;entryY=0;entryDx=0;entryDy=0;endArrow=none;endFill=0;strokeWidth=2;strokeColor=light-dark(#555555, #ededed);" parent="1" source="6KYaLly6HS5aU-zTOS-U-201" edge="1">
          <mxGeometry relative="1" as="geometry">
            <mxPoint x="4740" y="628.83" as="targetPoint" />
          </mxGeometry>
        </mxCell>
        <mxCell id="6KYaLly6HS5aU-zTOS-U-201" value="carga" style="rhombus;whiteSpace=wrap;html=1;align=center;fontSize=10;strokeWidth=2;strokeColor=light-dark(#555555, #ededed);" parent="1" vertex="1">
          <mxGeometry x="4710" y="569.4999999999999" width="60" height="40" as="geometry" />
        </mxCell>
        <mxCell id="6KYaLly6HS5aU-zTOS-U-202" value="(1,1)" style="text;html=1;align=center;verticalAlign=middle;whiteSpace=wrap;rounded=0;fontSize=9;" parent="1" vertex="1">
          <mxGeometry x="4743.54" y="543.32" width="22" height="10" as="geometry" />
        </mxCell>
        <mxCell id="6KYaLly6HS5aU-zTOS-U-203" value="(0,N)" style="text;html=1;align=center;verticalAlign=middle;whiteSpace=wrap;rounded=0;fontSize=9;" parent="1" vertex="1">
          <mxGeometry x="4743.54" y="616.33" width="22" height="10" as="geometry" />
        </mxCell>
        <mxCell id="6KYaLly6HS5aU-zTOS-U-204" value="(0,N)" style="text;html=1;align=center;verticalAlign=middle;whiteSpace=wrap;rounded=0;fontSize=9;" parent="1" vertex="1">
          <mxGeometry x="4521" y="771.82" width="22" height="10" as="geometry" />
        </mxCell>
        <mxCell id="6KYaLly6HS5aU-zTOS-U-205" value="(0,N)" style="text;html=1;align=center;verticalAlign=middle;whiteSpace=wrap;rounded=0;fontSize=9;" parent="1" vertex="1">
          <mxGeometry x="4521" y="672.8199999999999" width="22" height="10" as="geometry" />
        </mxCell>
        <mxCell id="6KYaLly6HS5aU-zTOS-U-206" value="(0,1)" style="text;html=1;align=center;verticalAlign=middle;whiteSpace=wrap;rounded=0;fontSize=9;" parent="1" vertex="1">
          <mxGeometry x="4675" y="651.32" width="22" height="10" as="geometry" />
        </mxCell>
        <mxCell id="6KYaLly6HS5aU-zTOS-U-207" value="(0,N)" style="text;html=1;align=center;verticalAlign=middle;whiteSpace=wrap;rounded=0;fontSize=9;" parent="1" vertex="1">
          <mxGeometry x="4563" y="651.32" width="22" height="10" as="geometry" />
        </mxCell>
        <mxCell id="6KYaLly6HS5aU-zTOS-U-208" value="(1,N)" style="text;html=1;align=center;verticalAlign=middle;whiteSpace=wrap;rounded=0;fontSize=9;" parent="1" vertex="1">
          <mxGeometry x="4324" y="478.4999999999999" width="22" height="10" as="geometry" />
        </mxCell>
        <mxCell id="6KYaLly6HS5aU-zTOS-U-209" value="(0,N)" style="text;html=1;align=center;verticalAlign=middle;whiteSpace=wrap;rounded=0;fontSize=9;" parent="1" vertex="1">
          <mxGeometry x="4523" y="460.32" width="22" height="10" as="geometry" />
        </mxCell>
        <mxCell id="goTP0BKy_tL2AA03Dzn3-1" value="&lt;p&gt;&lt;b&gt;Usuario ( &lt;u&gt;email&lt;/u&gt; , usuario , nombre_y_apellido&amp;nbsp;)&lt;/b&gt;&lt;/p&gt;&lt;p&gt;&lt;b&gt;Album ( &lt;u&gt;#album&lt;/u&gt; , nombre , descripcion , fecha_creacion )&lt;/b&gt;&lt;b&gt;&lt;/b&gt;&lt;/p&gt;&lt;p&gt;&lt;b&gt;Publicacion ( &lt;u&gt;#publicacion&lt;/u&gt; , texto , fecha_publicacion )&lt;/b&gt;&lt;/p&gt;&lt;p&gt;&lt;b&gt;Foto (&amp;nbsp;&lt;/b&gt;&lt;b style=&quot;background-color: transparent; color: light-dark(rgb(0, 0, 0), rgb(255, 255, 255));&quot;&gt;&lt;u&gt;#contenido&lt;/u&gt; , comentario , fecha_de_publicacion ,&lt;/b&gt;&lt;b style=&quot;background-color: transparent; color: light-dark(rgb(0, 0, 0), rgb(255, 255, 255));&quot;&gt;&amp;nbsp;resolucion , formato )&lt;/b&gt;&lt;/p&gt;&lt;p&gt;&lt;b&gt;Video (&amp;nbsp;&lt;/b&gt;&lt;b style=&quot;background-color: transparent; color: light-dark(rgb(0, 0, 0), rgb(255, 255, 255));&quot;&gt;&amp;nbsp;&lt;/b&gt;&lt;b style=&quot;background-color: transparent; color: light-dark(rgb(0, 0, 0), rgb(255, 255, 255));&quot;&gt;&lt;u&gt;#contenido&lt;/u&gt; , comentario , fecha_de_publicacion ,&amp;nbsp;&lt;/b&gt;&lt;b style=&quot;background-color: transparent; color: light-dark(rgb(0, 0, 0), rgb(255, 255, 255));&quot;&gt;duracion )&lt;/b&gt;&lt;/p&gt;&lt;p&gt;&lt;b&gt;Etiqueta ( &lt;u&gt;#etiqueta&lt;/u&gt; , nombre )&lt;/b&gt;&lt;b&gt;&lt;/b&gt;&lt;/p&gt;&lt;p&gt;&lt;b&gt;&lt;br&gt;&lt;/b&gt;&lt;/p&gt;&lt;p&gt;&lt;b&gt;agrega ( &lt;u&gt;email_&lt;/u&gt;&lt;/b&gt;&lt;b&gt;&lt;u&gt;participante&amp;nbsp;&lt;/u&gt;&lt;/b&gt;&lt;b&gt;&lt;u&gt;, email_agregado&lt;/u&gt; )&lt;/b&gt;&lt;/p&gt;&lt;p&gt;&lt;b&gt;participa_en ( &lt;u&gt;email , #album&lt;/u&gt; )&lt;/b&gt;&lt;/p&gt;&lt;p&gt;&lt;b&gt;realiza ( &lt;u&gt;email , #publicacion&lt;/u&gt; )&lt;/b&gt;&lt;b&gt;&lt;/b&gt;&lt;/p&gt;&lt;p&gt;&lt;b&gt;crea ( email , &lt;u&gt;#album&lt;/u&gt; )&lt;/b&gt;&lt;b&gt;&lt;/b&gt;&lt;/p&gt;&lt;p&gt;&lt;b&gt;carga (&amp;nbsp;&lt;/b&gt;&lt;b style=&quot;color: light-dark(rgb(0, 0, 0), rgb(255, 255, 255)); background-color: transparent;&quot;&gt;email , #album , &lt;u&gt;#contenido&lt;/u&gt;&lt;/b&gt;&lt;b&gt;&amp;nbsp;)&lt;/b&gt;&lt;/p&gt;&lt;p&gt;&lt;b&gt;posee ( &lt;u&gt;#publicacion&lt;/u&gt; , #contenido )&lt;/b&gt;&lt;/p&gt;&lt;p&gt;&lt;b&gt;tiene ( &lt;u&gt;#publicacion , #etiqueta&lt;/u&gt; )&lt;/b&gt;&lt;b&gt;&lt;/b&gt;&lt;/p&gt;&lt;p&gt;&lt;b&gt;&lt;br&gt;&lt;/b&gt;&lt;/p&gt;" style="text;whiteSpace=wrap;html=1;" vertex="1" parent="1">
          <mxGeometry x="4960" y="400.32" width="630" height="420" as="geometry" />
        </mxCell>
      </root>
    </mxGraphModel>
  </diagram>
</mxfile>
